# xmcd CD database file generated by OrangeCD 5.2
#
# Track frame offsets:
#	150
#	11950
#	24083
#	40423
#	48325
#	62953
#	74793
#	94773
#	110783
#	125465
#	136640
#
# Disc length: 1999 seconds
#
# Revision: 3
# Processed by: cddbd v1.5.1PL0 Copyright (c) Steve Scherf et al.
# Submitted via: OrangeCD 5.2
#
DISCID=9d07cd0b
DTITLE=Reidar Larsen - I'm A Bluesman
DYEAR=1982
DGENRE=Blues
TTITLE0=I'm A Bluesman
TTITLE1=Face InThe Crowd
TTITLE2=W.P.A. Blues
TTITLE3=Me And My Chaffeur Blues
TTITLE4=Hard Pill To Swallow
TTITLE5=Honky Tonk Train
TTITLE6=Sweet Home Chicago
TTITLE7=Have You Ever Been All Alone
TTITLE8=Big Fat Mama
TTITLE9=I Can Tell By The Way You Smell
TTITLE10=How Long Blues
EXTD=
EXTT0=
EXTT1=
EXTT2=
EXTT3=
EXTT4=
EXTT5=
EXTT6=
EXTT7=
EXTT8=
EXTT9=
EXTT10=
PLAYORDER=
